<?xml version="1.0" encoding="utf-8"?>
<!-- Generator: Adobe Illustrator 16.0.0, SVG Export Plug-In . SVG Version: 6.00 Build 0)  -->
<!DOCTYPE svg PUBLIC "-//W3C//DTD SVG 1.1//EN" "http://www.w3.org/Graphics/SVG/1.1/DTD/svg11.dtd">
<svg version="1.1" id="Layer_1" xmlns="http://www.w3.org/2000/svg" xmlns:xlink="http://www.w3.org/1999/xlink" x="0px" y="0px"
	 width="76px" height="76px" viewBox="0 0 76 76" enable-background="new 0 0 76 76" xml:space="preserve">
<path d="M40.788,34.289l0.073-0.108v0.108 M64.349,63.533h-11.44V45.234c0-4.599-1.658-7.736-5.798-7.736
	c-3.165,0-5.044,2.118-5.867,4.162c-0.308,0.728-0.382,1.75-0.382,2.77v19.104h-11.44c0,0,0.149-30.994,0-34.201h11.44v4.848
	c1.519-2.33,4.232-5.653,10.311-5.653c7.529,0,13.177,4.885,13.177,15.395 M17.37,24.661h-0.077c-3.838,0-6.327-2.625-6.327-5.912
	c0-3.353,2.563-5.906,6.476-5.906c3.916,0,6.322,2.553,6.398,5.906C23.84,22.035,21.357,24.661,17.37,24.661z M23.091,63.533H11.646
	V29.333h11.446 M70.279,0.125H5.723c-3.09,0-5.598,2.43-5.598,5.428v64.894c0,2.995,2.508,5.429,5.598,5.429h64.556
	c3.095,0,5.596-2.434,5.596-5.429V5.553C75.875,2.555,73.374,0.125,70.279,0.125z"/>
</svg>
