<?xml version="1.0" encoding="utf-8"?>
<!-- Generator: Adobe Illustrator 16.0.0, SVG Export Plug-In . SVG Version: 6.00 Build 0)  -->
<!DOCTYPE svg PUBLIC "-//W3C//DTD SVG 1.1//EN" "http://www.w3.org/Graphics/SVG/1.1/DTD/svg11.dtd">
<svg version="1.1" id="Layer_1" xmlns="http://www.w3.org/2000/svg" xmlns:xlink="http://www.w3.org/1999/xlink" x="0px" y="0px"
 viewBox="0 0 512 512" enable-background="new 0 0 512 512" xml:space="preserve">
<g>

		<radialGradient id="ellipse3860_1_" cx="252.7432" cy="234.8125" r="238.4082" gradientTransform="matrix(1.4995 0 0 -1.3497 -238.9561 461.8555)" gradientUnits="userSpaceOnUse">
		<stop  offset="0" style="stop-color:#DDDCE9"/>
		<stop  offset="0.37" style="stop-color:#5664A3"/>
		<stop  offset="1" style="stop-color:#000000"/>
	</radialGradient>

		<ellipse id="ellipse3860" fill="#6C7EB7" stroke="url(#ellipse3860_1_)" stroke-width="5.5" cx="256" cy="256" rx="239.532" ry="124.688"/>
	<path id="p" stroke="#FFFFFF" stroke-width="2" stroke-linejoin="round" d="M83.732,329.828l26.251-132.891h60.704
		c26.248,1.64,39.374,14.766,39.374,37.734c0,39.375-31.172,62.343-59.062,60.702h-29.531l-6.563,34.454H83.732z M128.029,270.765
		l8.204-49.218h21.328c11.484,0,19.688,4.921,19.688,14.766c-1.64,27.891-14.766,32.813-29.532,34.452H128.029z"/>
	<path id="h" stroke="#FFFFFF" stroke-width="2" stroke-linejoin="round" d="M200.219,295.374l26.249-132.891h31.173l-6.564,34.454
		h29.533c26.25,1.64,36.093,14.766,32.813,31.172l-11.485,67.265h-32.813l11.485-60.702c1.642-8.204,1.642-13.125-9.845-13.125
		h-24.61l-14.765,73.827H200.219z"/>
	<path id="p_1_" stroke="#FFFFFF" stroke-width="2" stroke-linejoin="round" d="M303.578,329.828l26.25-132.891h60.701
		c26.25,1.64,39.378,14.766,39.378,37.734c0,39.375-31.175,62.343-59.063,60.702h-29.533l-6.562,34.454H303.578z M347.875,270.765
		l8.204-49.218h21.327c11.485,0,19.688,4.921,19.688,14.766c-1.642,27.891-14.768,32.813-29.533,34.452H347.875z"/>
</g>
</svg>
