<?xml version="1.0" encoding="utf-8"?>
<!-- Generator: Adobe Illustrator 16.0.0, SVG Export Plug-In . SVG Version: 6.00 Build 0)  -->
<!DOCTYPE svg PUBLIC "-//W3C//DTD SVG 1.1//EN" "http://www.w3.org/Graphics/SVG/1.1/DTD/svg11.dtd">
<svg version="1.1" id="Layer_1" xmlns="http://www.w3.org/2000/svg" xmlns:xlink="http://www.w3.org/1999/xlink" x="0px" y="0px"
	  viewBox="0 0 512 512" enable-background="new 0 0 512 512" xml:space="preserve">
<g>
	<path fill="#131B28" d="M219.439,238.679v-0.005l-3.233,11.461L219.439,238.679L219.439,238.679z"/>
	<path fill="#131B28" d="M236.071,263.561l-3.563-0.021L236.071,263.561z"/>
	<path fill="#131B28" d="M235.154,280.676h0.003l-21.35,0.076l21.348-0.076H235.154z"/>
	<path fill="#131B28" d="M239.63,263.582l-3.564-0.021L239.63,263.582z"/>
	<path fill="#131B28" d="M237.026,279.221l3.718-14.184l-3.718,14.188V279.221L237.026,279.221z"/>
	<path fill="#131B28" d="M315.632,213.904l-6.928,32.569L315.632,213.904z"/>
	<path fill="#131B28" d="M297.821,213.904l-5.257,24.33l5.257-24.333V213.904z"/>
	<path fill="#131B28" d="M314.444,212.438h-14.813c-0.822,0-1.64,0.659-1.814,1.463l-5.259,24.332l-5.261,24.333
		c-0.173,0.803-0.988,1.461-1.81,1.461h-8.988h-1.498c-10.372,0-9.174-7.176-7.05-17.007c0.022-0.099,0.044-0.195,0.065-0.296
		l0.231-1.239c0.015-0.08,0.032-0.16,0.046-0.232l0.473-2.523l0.507-2.704c0.154-0.815,0.388-2.007,0.542-2.755l2.39-11.682
		l2.394-11.682c0.165-0.805-0.375-1.468-1.197-1.468h-15.205c-0.822,0-1.636,0.663-1.804,1.466l-3.27,15.511l-3.269,15.51
		c-0.003,0.006-0.003,0.016-0.006,0.023l-0.303,1.441c-3.767,17.194-2.769,33.59,17.701,34.102c0.332,0.01,0.593,0.014,0.593,0.014
		h32.125c0.824,0,1.639-0.662,1.81-1.465l6.929-32.568l6.928-32.569C315.799,213.099,315.267,212.439,314.444,212.438
		L314.444,212.438z"/>
	<path fill="#131B28" d="M373.544,264.195c0.822,0,1.359,0.66,1.195,1.465l-1.439,7.031"/>
	<path fill="#131B28" d="M371.864,279.725l1.438-7.033l-1.438,7.035C371.863,279.725,371.864,279.725,371.864,279.725
		L371.864,279.725z"/>
	<path fill="#131B28" d="M370.061,281.205c0.002,0,0.004-0.002,0.006-0.002c-4.359,0.035-17.46,0.137-27.306,0.137
		c11.984,0,27.298-0.133,27.298-0.133L370.061,281.205z"/>
	<path fill="#131B28" d="M333.922,255.14c-0.011-0.77,0.864-2.096,1.688-2.096l-1.852-0.03
		C332.926,261.398,333.922,255.14,333.922,255.14L333.922,255.14z"/>
	<path fill="#131B28" d="M344.109,281.334c-0.093,0-0.189,0-0.284,0.002C343.92,281.334,344.017,281.334,344.109,281.334z"/>
	<path fill="#131B28" d="M373.544,264.195c0.822,0,1.359,0.66,1.195,1.465l-1.439,7.031l-0.232,1.146"/>
	<path fill="#131B28" d="M351.123,281.318h-0.06H351.123z"/>
	<path fill="#131B28" d="M347.486,281.33h-0.211H347.486z"/>
	<path fill="#131B28" d="M346.376,281.332c-0.115,0-0.233,0-0.348,0.002C346.143,281.332,346.261,281.332,346.376,281.332z"/>
	<path fill="#131B28" d="M345.247,281.334h-0.307H345.247z"/>
	<path fill="#131B28" d="M347.273,281.33c-0.3,0-0.601,0.002-0.897,0.002C346.673,281.332,346.974,281.33,347.273,281.33z"/>
	<path fill="#131B28" d="M351.065,281.318c-1.199,0.006-2.395,0.01-3.575,0.012C348.671,281.328,349.868,281.324,351.065,281.318z"
		/>
	<path fill="#131B28" d="M370.069,281.203L370.069,281.203c-3.193,0.025-11.084,0.086-18.951,0.115
		C358.981,281.289,366.873,281.229,370.069,281.203z"/>
	<path fill="#131B28" d="M371.864,279.73l1.205-5.893l-1.206,5.896c0-0.002,0.001-0.002,0.001-0.006V279.73z"/>
	<path fill="#131B28" d="M346.029,281.334h-0.782H346.029z"/>
	<path fill="#131B28" d="M343.82,281.336h-1.058H343.82z"/>
	<path fill="#131B28" d="M344.939,281.334h-0.834H344.939z"/>
	<path fill="#131B28" d="M128.234,255.317l2.301-10.201l-2.631,11.661l-2.525,11.878l2.214-10.412
		C127.764,257.437,128.053,256.119,128.234,255.317L128.234,255.317z"/>
	<path fill="#131B28" d="M155.778,212.267h-16.27c-0.822,0-1.644,0.656-1.828,1.458l-1.542,6.81l-1.543,6.812
		c-0.181,0.8,0.343,1.457,1.167,1.457h16.395c0.822,0,1.639-0.657,1.816-1.46l1.49-6.809l1.491-6.805v-0.002
		C157.13,212.924,156.601,212.267,155.778,212.267L155.778,212.267z"/>
	<path fill="#131B28" d="M152.237,234.917v-0.002l-4.772,22.076L152.237,234.917z"/>
	<path fill="#131B28" d="M104.976,308.061c0,0,8.201,0.105,13.414,0.105c-3.96,0-10.501-0.074-13.421-0.107
		C104.972,308.059,104.973,308.061,104.976,308.061L104.976,308.061z"/>
	<path fill="#131B28" d="M132.836,234.914l-2.304,10.202L132.836,234.914z"/>
	<path fill="#131B28" d="M151.06,233.456h-16.397c-0.822,0-1.645,0.656-1.826,1.459l-2.304,10.202l-2.301,10.201
		c-0.181,0.803-0.471,2.12-0.641,2.925l-2.213,10.414l-2.211,10.41c-0.173,0.803-0.525,2.102-0.789,2.881
		c0,0-3.064,9.113-8.213,9.01c-0.219-0.002-0.432-0.004-0.643-0.012c-2.495-0.045-4.456-0.082-4.456-0.082h-0.004
		c-0.822-0.01-1.647,0.629-1.839,1.426l-1.7,7.15l-1.7,7.146c-0.19,0.797,0.326,1.457,1.143,1.471
		c2.921,0.035,9.461,0.109,13.421,0.109c12.863,0,19.645-7.127,23.991-27.635l5.088-23.54l4.772-22.077
		C152.412,234.113,151.881,233.456,151.06,233.456L151.06,233.456z"/>
	<path fill="#131B28" d="M383.991,280.504c-0.821,0-1.355-0.66-1.184-1.465l12.337-57.777"/>
	<path fill="#131B28" d="M401.134,279.035l4.989-24.66L401.134,279.035z"/>
	<path fill="#131B28" d="M382.987,279.771c-0.1-0.402-0.042-1.389,0.134-2.195l5.854-27.425l-6.167,28.888
		c-0.174,0.805,0.36,1.465,1.182,1.465h1.498C384.664,280.504,383.087,280.174,382.987,279.771L382.987,279.771z"/>
	<path fill="#131B28" d="M400.16,280.174c-0.447,0.182-1.489,0.33-2.313,0.33h1.498c0.822,0,1.63-0.66,1.791-1.469l0.299-1.465
		C401.271,278.377,400.608,279.992,400.16,280.174L400.16,280.174z"/>
	<path fill="#131B28" d="M403.633,266.705l2.202-10.883c-0.002,0.007-0.002,0.017-0.004,0.021L403.633,266.705L403.633,266.705z"/>
	<path fill="#131B28" d="M452.304,225.131l0.679,2.808c0.188,0.803-0.331,1.456-1.153,1.458"/>
	<path fill="#131B28" d="M401.434,277.57l2.195-10.863L401.434,277.57z"/>
	<path fill="#131B28" d="M451.627,222.255l0.673,2.876L451.627,222.255z"/>
	<path fill="#131B28" d="M405.833,255.823c0.161-0.806,0.433-2.11,0.605-2.908l2.351-11.018l-2.664,12.48L405.833,255.823
		L405.833,255.823z"/>
	<path fill="#131B28" d="M395.345,220.314c-0.163,0.777-0.373,1.759-0.512,2.41l-5.854,27.426l6.168-28.889L395.345,220.314
		L395.345,220.314z"/>
	<path fill="#131B28" d="M452.979,227.939l-0.681-2.808l-0.671-2.876l-0.342-1.456c-1.331-5.174-5.241-8.161-13.729-8.161
		l-13.219-0.014l-12.173-0.014h-1.043h-12.651c-0.823,0-1.637,0.657-1.806,1.462l0,0l-0.605,2.863l-0.717,3.379l-0.196,0.947
		l-6.168,28.889l-5.854,27.425c-0.175,0.807-0.233,1.793-0.133,2.195c0.1,0.402,1.677,0.732,2.5,0.732h12.356
		c0.821,0,1.864-0.148,2.311-0.33c0.45-0.18,1.111-1.797,1.275-2.604l2.197-10.863l2.198-10.863c0-0.005,0.002-0.015,0.004-0.021
		l0.292-1.446l2.664-12.48l2.354-11.023c0.173-0.801,0.983-1.456,1.805-1.458l38.88-0.019c0.818-0.002,1.339-0.655,1.153-1.458
		L452.979,227.939z"/>
	<path fill="#131B28" d="M503.028,202.554c-0.824,0.005-2.17,0.011-2.993,0.011H487.59c-0.821,0-1.875,0.556-2.339,1.235
		l-27.518,40.313c-0.466,0.681-0.994,0.58-1.178-0.222l-2.024-8.881c-0.182-0.803-1.008-1.458-1.828-1.458h-17.691
		c-0.823,0-1.31,0.645-1.085,1.437l7.928,27.768c0.225,0.791,0.242,2.092,0.039,2.889l-3.457,13.439
		c-0.204,0.799,0.303,1.451,1.125,1.451h17.485c0.82,0,1.66-0.652,1.864-1.451l3.459-13.439c0.203-0.797,0.774-1.986,1.271-2.645
		l44.671-59.291c0.497-0.658,0.229-1.192-0.594-1.187L503.028,202.554L503.028,202.554z"/>
	<path fill="#131B28" d="M362.486,237.331v-0.016c-0.104,0.893-0.927,1.547-1.748,1.547h-22.428c-0.774,0-1.17-0.527-1.056-1.178
		c0.005-0.019,0.009-0.035,0.021-0.052c0,0-0.008,0.003-0.015,0.008c0.005-0.026,0.005-0.05,0.013-0.075
		c0,0,0.041-0.159,0.101-0.382c2.144-5.694,6.507-9.433,14.707-9.433c9.23,0,11.034,4.511,10.406,9.581H362.486z M355.908,211.444
		c-28.789,0-35.609,17.475-39.438,35.11c-3.826,17.976-3.496,34.782,26.293,34.782h1.058c0.094-0.002,0.192-0.002,0.284-0.002h0.835
		h0.305h0.782c0.116-0.002,0.232-0.002,0.349-0.002c0.298,0,0.597-0.002,0.898-0.002h0.211c1.178-0.002,2.374-0.006,3.572-0.01
		h0.062c7.867-0.031,15.757-0.092,18.953-0.117c0.817-0.012,1.617-0.67,1.786-1.469l1.206-5.895l0.235-1.148l1.437-7.031
		c0.167-0.805-0.372-1.465-1.195-1.465h-26.78c-10.652,0-13.815-2.828-12.651-11.151h42.812l-0.004,0.004
		c0.012,0,0.021-0.004,0.03-0.004c0.68-0.012,1.31-0.48,1.559-1.105c0.047-0.119,0.089-0.245,0.103-0.374l-0.003,0.004
		c6.357-23.978,4.533-40.124-22.7-40.124L355.908,211.444z"/>
	<path fill="#131B28" d="M219.845,237.239l-0.406,1.435c0,0.005-0.002,0.005-0.002,0.005l-3.231,11.456l-3.231,11.453
		c-0.224,0.793-1.08,1.439-1.903,1.439h-17.111c-12.979,0-16.139-10.15-12.979-25.123c3.16-15.313,9.355-24.834,22.129-25.798
		C220.566,210.791,224.06,223.068,219.845,237.239L219.845,237.239z M231.577,262.146c0,0,8.068-19.587,9.899-30.901
		c2.499-15.145-5.083-37.108-34.373-37.108c-29.121,0-41.768,20.969-46.593,43.767c-4.823,22.961,1.498,43.098,30.454,42.934
		l22.842-0.086l21.35-0.076c0.823-0.008,1.664-0.66,1.873-1.453l3.719-14.188c0.207-0.797-0.295-1.451-1.117-1.455l-3.565-0.021
		l-3.563-0.021c-0.701-0.004-1.1-0.457-1.016-1.059c0.016-0.107,0.04-0.217,0.087-0.332H231.577z"/>
	<path fill="#131B28" d="M375.742,249.038c0,0.542-0.439,0.982-0.981,0.982c-0.541,0-0.982-0.44-0.982-0.982
		s0.441-0.979,0.982-0.979C375.303,248.058,375.742,248.496,375.742,249.038z"/>
	<path fill="#0868AC" d="M9.207,223.57c-8.041,11.558-7.04,26.593-0.898,38.874c0.147,0.293,0.3,0.584,0.451,0.873
		c0.096,0.184,0.187,0.373,0.287,0.553c0.056,0.109,0.12,0.215,0.179,0.318c0.104,0.197,0.212,0.383,0.32,0.574
		c0.191,0.336,0.387,0.67,0.587,1.004c0.111,0.186,0.22,0.369,0.334,0.553c0.221,0.357,0.448,0.711,0.681,1.063
		c0.097,0.152,0.19,0.303,0.289,0.449c0.321,0.477,0.648,0.953,0.986,1.422c0.008,0.012,0.018,0.025,0.028,0.037
		c0.053,0.076,0.112,0.148,0.166,0.225c0.292,0.404,0.594,0.801,0.898,1.193c0.112,0.145,0.225,0.289,0.338,0.432
		c0.271,0.342,0.549,0.68,0.83,1.021c0.105,0.125,0.211,0.254,0.317,0.377c0.377,0.445,0.763,0.889,1.156,1.32
		c0.007,0.008,0.017,0.018,0.023,0.025c0.017,0.02,0.031,0.029,0.045,0.049c0.384,0.42,0.777,0.83,1.176,1.238
		c0.123,0.129,0.249,0.254,0.376,0.381c0.309,0.311,0.622,0.615,0.938,0.92c0.128,0.123,0.256,0.248,0.384,0.365
		c0.423,0.398,0.85,0.787,1.286,1.172c0.008,0.006,0.013,0.012,0.021,0.014c0.074,0.066,0.151,0.129,0.224,0.191
		c0.384,0.332,0.775,0.662,1.168,0.986c0.16,0.131,0.323,0.258,0.484,0.387c0.322,0.258,0.646,0.512,0.974,0.762
		c0.173,0.133,0.346,0.264,0.521,0.395c0.361,0.266,0.725,0.529,1.093,0.785c0.135,0.096,0.264,0.191,0.398,0.283
		c0.037,0.025,0.072,0.053,0.109,0.078c0.349,0.24,0.705,0.471,1.061,0.701c0.153,0.102,0.305,0.207,0.46,0.305
		c0.546,0.348,1.1,0.689,1.661,1.02c0.152,0.088,0.306,0.172,0.458,0.26c0.413,0.236,0.827,0.471,1.247,0.699
		c0.229,0.121,0.461,0.238,0.69,0.354c0.297,0.156,0.591,0.314,0.893,0.465c0.067,0.035,0.139,0.066,0.206,0.1
		c0.121,0.059,0.244,0.115,0.364,0.176c0.468,0.223,0.938,0.443,1.416,0.656c0.102,0.045,0.198,0.088,0.299,0.133
		c0.544,0.238,1.095,0.467,1.648,0.686c0.134,0.055,0.268,0.105,0.402,0.158c0.514,0.197,1.034,0.393,1.557,0.576
		c0.066,0.025,0.129,0.045,0.195,0.068c0.574,0.201,1.152,0.387,1.736,0.568c0.139,0.041,0.279,0.084,0.418,0.125
		c0.593,0.178,1.181,0.393,1.792,0.506c38.888,7.09,50.184-23.369,50.184-23.369c-9.487,12.359-26.326,15.621-42.282,11.99
		c-0.604-0.137-1.191-0.324-1.781-0.5c-0.15-0.045-0.297-0.088-0.444-0.135c-0.576-0.176-1.147-0.359-1.714-0.557
		c-0.077-0.029-0.157-0.057-0.235-0.084c-0.509-0.18-1.012-0.369-1.512-0.561c-0.142-0.057-0.283-0.111-0.424-0.168
		c-0.55-0.217-1.094-0.441-1.633-0.678c-0.11-0.047-0.216-0.098-0.326-0.145c-0.463-0.209-0.92-0.422-1.376-0.641
		c-0.131-0.064-0.264-0.125-0.398-0.191c-0.358-0.174-0.711-0.359-1.064-0.541c-0.236-0.125-0.477-0.242-0.71-0.373
		c-0.432-0.23-0.855-0.471-1.277-0.715c-0.143-0.08-0.287-0.158-0.431-0.24c-0.56-0.33-1.114-0.672-1.662-1.018
		c-0.151-0.098-0.299-0.201-0.449-0.301c-0.397-0.256-0.793-0.518-1.183-0.785c-0.129-0.088-0.253-0.182-0.381-0.268
		c-0.376-0.266-0.749-0.537-1.118-0.809c-0.168-0.125-0.333-0.252-0.496-0.375c-0.339-0.26-0.676-0.521-1.01-0.789
		c-0.151-0.119-0.301-0.24-0.45-0.361c-0.424-0.35-0.843-0.697-1.256-1.059c-0.043-0.037-0.092-0.074-0.137-0.115
		c-0.448-0.395-0.887-0.797-1.322-1.203c-0.126-0.119-0.25-0.236-0.371-0.357c-0.323-0.305-0.639-0.613-0.95-0.93
		c-0.125-0.125-0.25-0.248-0.372-0.371c-0.396-0.406-0.785-0.816-1.165-1.232c-0.02-0.02-0.039-0.041-0.059-0.061
		c-0.402-0.441-0.795-0.891-1.181-1.346c-0.105-0.125-0.206-0.244-0.31-0.367c-0.288-0.346-0.573-0.697-0.85-1.051
		c-0.104-0.127-0.209-0.258-0.312-0.389c-0.334-0.434-0.662-0.867-0.982-1.308c-8.858-12.083-12.041-28.748-4.961-42.435"/>
	<path fill="#0868AC" d="M34.167,213.833c-5.815,8.368-5.499,19.571-0.963,28.42c0.761,1.484,1.616,2.922,2.572,4.294
		c0.872,1.248,1.837,2.735,2.994,3.738c0.418,0.462,0.857,0.911,1.304,1.354c0.113,0.116,0.229,0.227,0.345,0.339
		c0.433,0.422,0.876,0.837,1.332,1.239c0.019,0.015,0.035,0.034,0.054,0.047c0.004,0.006,0.009,0.008,0.014,0.013
		c0.504,0.443,1.027,0.869,1.556,1.289c0.118,0.089,0.235,0.184,0.354,0.275c0.531,0.408,1.073,0.809,1.629,1.19
		c0.018,0.011,0.03,0.024,0.047,0.035c0.245,0.17,0.495,0.328,0.742,0.491c0.12,0.078,0.233,0.16,0.353,0.233
		c0.397,0.255,0.798,0.503,1.208,0.739c0.057,0.037,0.113,0.066,0.17,0.1c0.351,0.203,0.709,0.402,1.068,0.596
		c0.124,0.07,0.25,0.133,0.378,0.198c0.247,0.129,0.495,0.261,0.747,0.386c0.037,0.018,0.077,0.035,0.113,0.051
		c0.512,0.254,1.029,0.496,1.557,0.727c0.112,0.049,0.229,0.094,0.344,0.141c0.422,0.18,0.848,0.355,1.276,0.518
		c0.182,0.07,0.365,0.135,0.546,0.201c0.389,0.145,0.779,0.277,1.172,0.408c0.178,0.057,0.353,0.115,0.531,0.17
		c0.559,0.174,1.111,0.393,1.695,0.49c30.024,4.973,36.956-18.144,36.956-18.144c-6.25,9-18.35,13.293-31.262,9.941
		c-0.573-0.151-1.138-0.315-1.699-0.492c-0.173-0.052-0.341-0.108-0.512-0.165c-0.399-0.13-0.796-0.267-1.19-0.41
		c-0.18-0.066-0.359-0.132-0.537-0.201c-0.431-0.165-0.857-0.336-1.279-0.515c-0.116-0.05-0.232-0.095-0.345-0.146
		c-0.531-0.231-1.053-0.474-1.566-0.729c-0.265-0.129-0.525-0.266-0.786-0.4c-0.15-0.078-0.303-0.156-0.453-0.233
		c-0.334-0.182-0.667-0.37-0.994-0.561c-0.078-0.045-0.159-0.087-0.238-0.135c-0.406-0.237-0.806-0.482-1.203-0.735
		c-0.123-0.077-0.241-0.162-0.363-0.242c-0.262-0.17-0.522-0.342-0.78-0.517c-0.553-0.381-1.091-0.782-1.623-1.187
		c-0.123-0.096-0.245-0.19-0.365-0.287c-5.651-4.463-10.132-10.561-12.263-17.477c-2.232-7.171-1.75-15.222,2.117-21.755"/>
	<path fill="#0868AC" d="M55.161,206.558c-3.429,5.045-3.766,11.31-1.388,16.882c2.509,5.913,7.649,10.554,13.648,12.753
		c0.249,0.092,0.495,0.174,0.746,0.259c0.109,0.033,0.219,0.071,0.329,0.104c0.354,0.112,0.704,0.241,1.069,0.31
		c16.58,3.203,21.075-8.508,22.272-10.231c-3.939,5.672-10.558,7.033-18.681,5.062c-0.641-0.156-1.347-0.388-1.966-0.607
		c-0.793-0.283-1.573-0.604-2.333-0.969c-1.443-0.693-2.817-1.534-4.093-2.497c-7.267-5.514-11.782-16.035-7.039-24.603"/>
	<path fill="#0868AC" d="M241.878,304.818l-4.779,10.883h-5.276l0.432-9.889l-3.884,9.889h-5.109l-0.135-10.883l0.565-2.688h3.617
		l-0.697,10.75l4.015-10.75h5.044l-0.366,10.885l3.983-10.885h3.151L241.878,304.818L241.878,304.818z"/>
	<path fill="#0868AC" d="M250.205,308.041c0.463-2.125,0.332-2.521-0.763-2.521h-1.66l-1.063,4.977l-1.626,5.209h-3.084
		l2.521-11.813l0.366-1.727h2.821l0.365,0.797c0,0,1.626-0.963,3.216-0.963c3.386,0,3.12,2.555,2.389,6.039h-3.482V308.041z"/>
	<path fill="#0868AC" d="M260.227,300.439c-1.358,0-2.222-0.398-1.89-2.057c0.363-1.66,1.427-2.059,2.753-2.059
		c1.328,0,2.224,0.398,1.86,2.059C262.616,300.008,261.555,300.439,260.227,300.439L260.227,300.439z M258.77,315.705h-3.055
		l0.596-5.311l1.063-4.91l-2.124-0.467l0.597-2.885h5.806l-2.884,13.568V315.705z"/>
	<path fill="#0868AC" d="M272.007,305.012l-3.815,0.469l-1.097,5.174c-0.299,1.43-0.299,1.826,0.963,1.826h2.555l-0.531,2.723
		c0,0-2.321,0.695-3.317,0.695c-3.915,0-3.884-2.158-3.185-5.377l1.061-5.076l-2.124-0.463l0.629-2.889h2.227l1.26-3.42h3.021
		l-0.731,3.42h3.715L272.007,305.012L272.007,305.012z"/>
	<path fill="#0868AC" d="M279.936,305.186c-1.791,0-2.72,0.93-3.084,2.59l5.11-0.434
		C282.192,306.213,281.962,305.186,279.936,305.186L279.936,305.186z M276.354,310.227c-0.233,1.662,0.398,2.225,2.521,2.225h5.343
		l-0.531,2.521c0,0-3.219,0.896-5.608,0.896c-5.938,0-6.007-3.348-5.241-6.936c0.763-3.516,2.123-6.998,7.862-6.998
		c5.545,0,5.81,3.35,4.446,8.291H276.354L276.354,310.227z"/>
	<path fill="#0868AC" d="M297.321,315.701h-3.053l0.598-5.309l2.157-10.088l-2.125-0.498l0.63-2.889h5.811L297.321,315.701
		L297.321,315.701z"/>
	<path fill="#0868AC" d="M308.348,305.186c-1.795,0-2.721,0.93-3.088,2.59l5.111-0.434
		C310.602,306.213,310.371,305.186,308.348,305.186L308.348,305.186z M304.762,310.227c-0.231,1.662,0.399,2.225,2.522,2.225h5.343
		l-0.532,2.521c0,0-3.218,0.896-5.608,0.896c-5.939,0-6.004-3.348-5.24-6.936c0.763-3.516,2.123-6.998,7.862-6.998
		c5.544,0,5.807,3.35,4.448,8.291H304.762L304.762,310.227z"/>
	<path fill="#0868AC" d="M327.555,305.35c0,0-3.883,0.033-4.943,0.033c-2.257,0-2.489,0.695-2.655,1.424l-0.134,0.664l7.168,0.533
		c0,0,0.033,2.289-0.266,3.582c-0.432,2.156-2.655,4.346-6.669,4.346c-1.992,0-5.211-0.76-5.211-0.76l0.565-2.621h4.944
		c2.188,0,2.488-0.6,2.623-1.195l0.165-0.861l-7.036-0.533c0,0-0.264-1.76,0.101-3.516c0.53-2.391,2.718-4.447,6.735-4.447
		c1.992,0,5.211,0.729,5.211,0.729L327.555,305.35L327.555,305.35z"/>
	<path fill="#0868AC" d="M340.897,305.35c0,0-3.882,0.033-4.945,0.033c-2.255,0-2.487,0.695-2.654,1.424l-0.133,0.664l7.169,0.533
		c0,0,0.034,2.289-0.267,3.582c-0.431,2.156-2.653,4.346-6.669,4.346c-1.99,0-5.21-0.76-5.21-0.76l0.563-2.621h4.946
		c2.188,0,2.487-0.6,2.621-1.195l0.166-0.861l-7.035-0.533c0,0-0.264-1.76,0.1-3.516c0.531-2.391,2.72-4.447,6.737-4.447
		c1.988,0,5.208,0.729,5.208,0.729L340.897,305.35L340.897,305.35z"/>
	<path fill="#0868AC" d="M345.075,317.863h-2.653l0.098-1.994c-0.963-0.063-1.46-0.76-1.229-1.924
		c0.365-1.658,1.394-2.057,2.755-2.057c1.329,0,2.222,0.398,1.857,2.057L345.075,317.863L345.075,317.863z"/>
	<path fill="#0868AC" d="M362.825,305.484c-1.99,0-2.687,1.195-3.152,3.385c-0.464,2.191-0.331,3.484,1.658,3.484h2.755l1.528-6.869
		H362.825z M367.373,313.945l-0.368,1.76l-2.785-0.033l-0.398-0.863c0,0-2.456,1.061-4.113,1.061c-4.249,0-4.447-3.484-3.684-7
		c0.762-3.584,2.421-6.971,6.636-6.971c1.528,0,3.584,0.764,3.584,0.764l1.692-5.74h3.054L367.373,313.945L367.373,313.945z"/>
	<path fill="#0868AC" d="M378.357,305.35c-2.587,0-3.419,1.457-3.883,3.582c-0.431,2.156-0.23,3.617,2.322,3.617
		c2.655,0,3.451-1.426,3.915-3.617C381.178,306.873,381.044,305.35,378.357,305.35L378.357,305.35z M376.103,315.9
		c-5.477,0-5.909-3.416-5.178-6.969c0.762-3.549,2.688-6.934,8.163-6.934c5.44,0,5.94,3.385,5.174,6.934
		C383.502,312.551,381.576,315.9,376.103,315.9z"/>
	<path fill="#0868AC" d="M407.163,315.701l0.6-5.244l0.297-1.492c0.433-1.99,0.697-3.451-1.394-3.451h-1.626
		c0.067,1.029-0.133,2.189-0.398,3.418l-1.426,6.77h-3.086l0.596-5.244l0.299-1.492c0.431-1.99,0.695-3.451-1.393-3.451h-1.328
		l-2.189,10.188h-3.552l2.887-13.57h2.788l0.43,0.83c0,0,1.894-0.998,3.42-0.998c1.161,0,2.023,0.533,2.323,1.195
		c0.663-0.367,2.556-1.195,3.917-1.195c4.244,0,4.114,3.449,3.349,6.969l-1.426,6.77H407.163L407.163,315.701z"/>
	<path fill="#0868AC" d="M421.269,305.35c-2.591,0-3.42,1.457-3.884,3.582c-0.431,2.156-0.231,3.617,2.322,3.617
		c2.654,0,3.454-1.426,3.916-3.617C424.087,306.873,423.956,305.35,421.269,305.35z M419.011,315.9
		c-5.477,0-5.907-3.416-5.176-6.969c0.763-3.549,2.688-6.934,8.163-6.934c5.443,0,5.94,3.385,5.176,6.934
		C426.412,312.551,424.486,315.9,419.011,315.9z"/>
	<path fill="#0868AC" d="M436.395,308.041c0.464-2.125,0.333-2.521-0.763-2.521h-1.66l-1.063,4.977l-1.627,5.209h-3.084
		l2.521-11.813l0.366-1.727h2.821l0.362,0.797c0,0,1.626-0.963,3.222-0.963c3.383,0,3.117,2.555,2.386,6.039h-3.482V308.041z"/>
	<path fill="#0868AC" d="M448.28,305.186c-1.789,0-2.72,0.93-3.084,2.59l5.106-0.434
		C450.537,306.213,450.303,305.186,448.28,305.186L448.28,305.186z M444.696,310.227c-0.231,1.662,0.398,2.225,2.521,2.225h5.343
		l-0.53,2.521c0,0-3.221,0.896-5.608,0.896c-5.939,0-6.006-3.348-5.245-6.936c0.766-3.516,2.127-6.998,7.867-6.998
		c5.54,0,5.808,3.35,4.447,8.291H444.696L444.696,310.227z"/>
	<path fill="#0868AC" d="M456.47,315.902c-1.396,0-2.255-0.396-1.891-2.021c0.33-1.664,1.361-2.061,2.755-2.061
		c1.292,0,2.188,0.396,1.858,2.061C458.825,315.473,457.766,315.902,456.47,315.902z"/>
</g>
</svg>
